# xmcd
#
# Track frame offsets: 
#        150
#        16143
#        32790
#        49002
#        65149
#        77892
#        89394
#        108794
#        124220
#        140821
#        155049
#        172515
#        196215
#        217060
#
# Disc length: 3241 seconds
#
# Revision: 0
# Processed by: cddbd v1.5.2PL0 Copyright (c) Steve Scherf et al.
# Submitted via: ExactAudioCopy v0.95b4
#
DISCID=c10ca70e
DTITLE=Rand Reynolds - AmericanX
DYEAR=2007
DGENRE=Country
TTITLE0=Shotgun
TTITLE1=Rusty Badge
TTITLE2=Don't Make Me Fall
TTITLE3=Thread
TTITLE4=Some Hearts Beat
TTITLE5=Dirty Little Girl
TTITLE6=Fingerprints
TTITLE7=Once Too Much
TTITLE8=Never Felt Sad
TTITLE9=Hurry Up Dawn
TTITLE10=I Shot My Boss
TTITLE11=Cutter
TTITLE12=Wreck
TTITLE13=AmericanX
EXTD=
EXTT0=
EXTT1=
EXTT2=
EXTT3=
EXTT4=
EXTT5=
EXTT6=
EXTT7=
EXTT8=
EXTT9=
EXTT10=
EXTT11=
EXTT12=
EXTT13=
PLAYORDER=
